<svg width="52" height="12" viewBox="0 0 52 12" fill="none" xmlns="http://www.w3.org/2000/svg">
<path d="M41.0742 10.2422C41.0742 10.0703 41.127 9.91406 41.2324 9.77344C41.3379 9.63281 41.4805 9.50586 41.6602 9.39258C41.8398 9.2793 42.0488 9.17969 42.2871 9.09375C42.5254 9.00781 42.7773 8.93555 43.043 8.87695C42.8164 8.83008 42.6113 8.77344 42.4277 8.70703C42.2441 8.64062 42.0859 8.5625 41.9531 8.47266C41.8242 8.38281 41.7227 8.28125 41.6484 8.16797C41.5781 8.05469 41.543 7.92969 41.543 7.79297C41.543 7.63281 41.5918 7.49023 41.6895 7.36523C41.791 7.23633 41.9199 7.125 42.0762 7.03125C42.2363 6.9375 42.416 6.86133 42.6152 6.80273C42.8145 6.74414 43.0137 6.70312 43.2129 6.67969C43.002 6.58203 42.8105 6.4668 42.6387 6.33398C42.4668 6.20117 42.3184 6.05469 42.1934 5.89453C42.0684 5.73047 41.9707 5.55273 41.9004 5.36133C41.834 5.16602 41.8008 4.95508 41.8008 4.72852C41.8008 4.32227 41.9102 3.9668 42.1289 3.66211C42.3477 3.35352 42.6367 3.09766 42.9961 2.89453C43.3555 2.69141 43.7637 2.53906 44.2207 2.4375C44.6777 2.33594 45.1465 2.28516 45.627 2.28516C46.0684 2.28516 46.5 2.32812 46.9219 2.41406C47.3477 2.5 47.7344 2.63086 48.082 2.80664C48.125 2.58008 48.207 2.38477 48.3281 2.2207C48.4492 2.05664 48.5918 1.92188 48.7559 1.81641C48.9238 1.71094 49.1055 1.63281 49.3008 1.58203C49.5 1.53125 49.6973 1.50586 49.8926 1.50586C50.1426 1.50586 50.3672 1.5332 50.5664 1.58789C50.7656 1.64258 50.9355 1.72656 51.0762 1.83984C51.2168 1.94922 51.3242 2.08789 51.3984 2.25586C51.4766 2.42383 51.5156 2.61914 51.5156 2.8418C51.5156 2.92383 51.5078 3.01172 51.4922 3.10547C51.4766 3.19531 51.4512 3.29102 51.416 3.39258L49.9219 3.73242C49.9336 3.65039 49.9395 3.57227 49.9395 3.49805C49.9395 3.36523 49.9219 3.25391 49.8867 3.16406C49.8516 3.07031 49.8066 2.99414 49.752 2.93555C49.6973 2.87695 49.6348 2.83594 49.5645 2.8125C49.4941 2.78516 49.4238 2.77148 49.3535 2.77148C49.1973 2.77148 49.0703 2.81836 48.9727 2.91211C48.875 3.00195 48.8047 3.11523 48.7617 3.25195C48.9805 3.44336 49.1504 3.66211 49.2715 3.9082C49.3965 4.15039 49.459 4.42383 49.459 4.72852C49.459 5.13477 49.3477 5.49023 49.125 5.79492C48.9062 6.09961 48.6152 6.35547 48.252 6.5625C47.8926 6.76562 47.4824 6.91797 47.0215 7.01953C46.5605 7.12109 46.0898 7.17188 45.6094 7.17188C44.9961 7.17188 44.416 7.0918 43.8691 6.93164C43.8262 6.96289 43.791 6.99609 43.7637 7.03125C43.7402 7.06641 43.7285 7.10547 43.7285 7.14844C43.7285 7.24609 43.7734 7.33203 43.8633 7.40625C43.957 7.47656 44.1172 7.53711 44.3438 7.58789C44.5703 7.63477 44.877 7.66992 45.2637 7.69336C45.6504 7.7168 46.1367 7.72852 46.7227 7.72852C47.5273 7.72852 48.2012 7.76758 48.7441 7.8457C49.291 7.91992 49.7305 8.03516 50.0625 8.19141C50.3945 8.34375 50.6309 8.53516 50.7715 8.76562C50.916 8.99609 50.9883 9.26562 50.9883 9.57422C50.9883 9.98047 50.8672 10.3223 50.625 10.5996C50.3867 10.8809 50.0391 11.1094 49.582 11.2852C49.1289 11.4609 48.5742 11.5879 47.918 11.666C47.2656 11.7441 46.5254 11.7832 45.6973 11.7832C44.9941 11.7832 44.3574 11.752 43.7871 11.6895C43.2207 11.627 42.7363 11.5312 42.334 11.4023C41.9316 11.2773 41.6211 11.1172 41.4023 10.9219C41.1836 10.7305 41.0742 10.5039 41.0742 10.2422ZM44.2969 4.72852C44.2969 4.95898 44.332 5.1582 44.4023 5.32617C44.4727 5.49414 44.5684 5.63281 44.6895 5.74219C44.8105 5.85156 44.9512 5.93164 45.1113 5.98242C45.2754 6.0332 45.4473 6.05859 45.627 6.05859C45.8066 6.05859 45.9766 6.03125 46.1367 5.97656C46.3008 5.92188 46.4434 5.83984 46.5645 5.73047C46.6855 5.62109 46.7812 5.48438 46.8516 5.32031C46.9219 5.15234 46.957 4.95508 46.957 4.72852C46.957 4.49414 46.9238 4.29102 46.8574 4.11914C46.791 3.94727 46.6973 3.80469 46.5762 3.69141C46.459 3.57812 46.3184 3.49414 46.1543 3.43945C45.9941 3.38477 45.8184 3.35742 45.627 3.35742C45.4473 3.35742 45.2754 3.38477 45.1113 3.43945C44.9512 3.49414 44.8105 3.57812 44.6895 3.69141C44.5684 3.80469 44.4727 3.94727 44.4023 4.11914C44.332 4.29102 44.2969 4.49414 44.2969 4.72852ZM43.9453 9.74414C43.9453 9.87695 43.9707 10.002 44.0215 10.1191C44.0762 10.2363 44.1738 10.3379 44.3145 10.4238C44.4551 10.5098 44.6465 10.5762 44.8887 10.623C45.1348 10.6738 45.4512 10.6992 45.8379 10.6992C46.127 10.6992 46.4199 10.6895 46.7168 10.6699C47.0176 10.6543 47.2891 10.6191 47.5312 10.5645C47.7734 10.5137 47.9707 10.4375 48.123 10.3359C48.2754 10.2383 48.3516 10.1074 48.3516 9.94336C48.3516 9.7793 48.3066 9.64062 48.2168 9.52734C48.127 9.41406 47.9648 9.32227 47.7305 9.25195C47.5 9.18555 47.1855 9.13672 46.7871 9.10547C46.3887 9.07422 45.8809 9.05859 45.2637 9.05859C45.1152 9.05859 44.9668 9.05664 44.8184 9.05273C44.6738 9.04883 44.5312 9.04297 44.3906 9.03516C44.2539 9.11719 44.1445 9.21875 44.0625 9.33984C43.9844 9.46094 43.9453 9.5957 43.9453 9.74414Z" fill="black"/>
<path d="M36.9258 5.00391C36.9258 4.89062 36.916 4.80859 36.8965 4.75781C36.8809 4.70703 36.873 4.66016 36.873 4.61719C36.873 4.55859 36.9043 4.51172 36.9668 4.47656C37.0293 4.4375 37.1035 4.41797 37.1895 4.41797C37.3887 4.41797 37.5449 4.4707 37.6582 4.57617C37.7754 4.67773 37.834 4.80078 37.834 4.94531V5.48438C37.916 5.31641 38.0039 5.16016 38.0977 5.01562C38.1953 4.87109 38.2988 4.74609 38.4082 4.64062C38.5215 4.53125 38.6406 4.44727 38.7656 4.38867C38.8945 4.32617 39.0332 4.29492 39.1816 4.29492C39.3809 4.29492 39.5449 4.33203 39.6738 4.40625C39.8027 4.48047 39.9043 4.57617 39.9785 4.69336C40.0527 4.81055 40.1035 4.94141 40.1309 5.08594C40.1621 5.23047 40.1777 5.37109 40.1777 5.50781V7.99219C40.1777 8.01953 40.1797 8.06445 40.1836 8.12695C40.1875 8.18555 40.1992 8.24609 40.2188 8.30859C40.2383 8.37109 40.2676 8.42578 40.3066 8.47266C40.3496 8.51953 40.4102 8.54297 40.4883 8.54297C40.6094 8.54297 40.7129 8.5 40.7988 8.41406C40.8887 8.32812 40.9648 8.2207 41.0273 8.0918C41.0938 7.96289 41.1465 7.82422 41.1855 7.67578C41.2285 7.52344 41.2637 7.38086 41.291 7.24805C41.3145 7.12305 41.3535 7.0332 41.4082 6.97852C41.4629 6.91992 41.5195 6.89062 41.5781 6.89062C41.625 6.89062 41.6738 6.90625 41.7246 6.9375C41.7754 6.96484 41.8203 7.00195 41.8594 7.04883C41.9023 7.0957 41.9355 7.14844 41.959 7.20703C41.9863 7.26562 42 7.32422 42 7.38281C42 7.39062 42 7.40039 42 7.41211C42 7.42383 41.9961 7.44141 41.9883 7.46484C41.9375 7.66406 41.8672 7.87305 41.7773 8.0918C41.6914 8.31055 41.5781 8.51172 41.4375 8.69531C41.3008 8.87891 41.1367 9.03125 40.9453 9.15234C40.7539 9.27344 40.5293 9.33398 40.2715 9.33398C40.1113 9.33398 39.9688 9.30273 39.8438 9.24023C39.7227 9.18164 39.6172 9.10156 39.5273 9C39.4414 8.89844 39.375 8.7793 39.3281 8.64258C39.2852 8.50586 39.2637 8.36133 39.2637 8.20898V5.77148C39.2637 5.67773 39.2617 5.58984 39.2578 5.50781C39.2539 5.42578 39.2422 5.35352 39.2227 5.29102C39.207 5.22852 39.1816 5.17969 39.1465 5.14453C39.1152 5.10547 39.0703 5.08594 39.0117 5.08594C38.9258 5.08594 38.8203 5.14453 38.6953 5.26172C38.5703 5.37891 38.4473 5.53125 38.3262 5.71875C38.2051 5.90625 38.0977 6.11914 38.0039 6.35742C37.9141 6.5918 37.8574 6.82812 37.834 7.06641V8.81836C37.834 8.87695 37.832 8.9375 37.8281 9C37.8281 9.05859 37.8164 9.11133 37.793 9.1582C37.7734 9.20898 37.7402 9.25 37.6934 9.28125C37.6504 9.31641 37.5859 9.33398 37.5 9.33398C37.4414 9.33398 37.377 9.32617 37.3066 9.31055C37.2402 9.29883 37.1777 9.27344 37.1191 9.23438C37.0645 9.19922 37.0176 9.14648 36.9785 9.07617C36.9434 9.00977 36.9258 8.91992 36.9258 8.80664V5.00391Z" fill="black"/>
<path d="M35.4844 3.22852C35.3867 3.22852 35.293 3.20898 35.2031 3.16992C35.1172 3.13086 35.041 3.07812 34.9746 3.01172C34.9121 2.94531 34.8613 2.86914 34.8223 2.7832C34.7832 2.69336 34.7637 2.59766 34.7637 2.49609C34.7637 2.39062 34.7832 2.29297 34.8223 2.20312C34.8613 2.11328 34.9121 2.03711 34.9746 1.97461C35.041 1.9082 35.1172 1.85742 35.2031 1.82227C35.293 1.7832 35.3867 1.76367 35.4844 1.76367C35.5898 1.76367 35.6875 1.7832 35.7773 1.82227C35.8672 1.85742 35.9434 1.9082 36.0059 1.97461C36.0723 2.03711 36.123 2.11328 36.1582 2.20312C36.1973 2.29297 36.2168 2.39062 36.2168 2.49609C36.2168 2.59766 36.1973 2.69336 36.1582 2.7832C36.123 2.86914 36.0723 2.94531 36.0059 3.01172C35.9434 3.07812 35.8672 3.13086 35.7773 3.16992C35.6875 3.20898 35.5898 3.22852 35.4844 3.22852ZM35.7598 7.99219C35.7598 8.01953 35.7617 8.06445 35.7656 8.12695C35.7695 8.18555 35.7812 8.24609 35.8008 8.30859C35.8203 8.37109 35.8516 8.42578 35.8945 8.47266C35.9375 8.51953 35.998 8.54297 36.0762 8.54297C36.1934 8.54297 36.2949 8.5 36.3809 8.41406C36.4707 8.32812 36.5469 8.2207 36.6094 8.0918C36.6758 7.96289 36.7305 7.82422 36.7734 7.67578C36.8164 7.52344 36.8516 7.38086 36.8789 7.24805C36.9023 7.12695 36.9375 7.03906 36.9844 6.98438C37.0352 6.92969 37.0879 6.90039 37.1426 6.89648C37.2012 6.88867 37.2578 6.90234 37.3125 6.9375C37.3711 6.97266 37.4219 7.01953 37.4648 7.07812C37.5117 7.13281 37.5449 7.19531 37.5645 7.26562C37.5879 7.33594 37.5918 7.40234 37.5762 7.46484C37.5215 7.66406 37.4492 7.87305 37.3594 8.0918C37.2734 8.31055 37.1621 8.51172 37.0254 8.69531C36.8887 8.87891 36.7246 9.03125 36.5332 9.15234C36.3418 9.27344 36.1172 9.33398 35.8594 9.33398C35.6992 9.33398 35.5566 9.30273 35.4316 9.24023C35.3066 9.18164 35.2012 9.10156 35.1152 9C35.0293 8.89844 34.9629 8.7793 34.916 8.64258C34.873 8.50586 34.8516 8.36133 34.8516 8.20898V5.00391C34.8516 4.89062 34.8418 4.80859 34.8223 4.75781C34.8066 4.70703 34.7988 4.66016 34.7988 4.61719C34.7988 4.55859 34.8301 4.51172 34.8926 4.47656C34.9551 4.4375 35.0293 4.41797 35.1152 4.41797C35.3145 4.41797 35.4707 4.4707 35.584 4.57617C35.7012 4.67773 35.7598 4.80078 35.7598 4.94531V7.99219Z" fill="black"/>
<path d="M34.1953 8.68945C34.2305 8.70898 34.2559 8.72461 34.2715 8.73633C34.291 8.74805 34.3008 8.77148 34.3008 8.80664C34.3008 8.8418 34.2734 8.88867 34.2188 8.94727C34.168 9.00586 34.1055 9.0625 34.0312 9.11719C33.957 9.17578 33.8789 9.22656 33.7969 9.26953C33.7188 9.3125 33.6523 9.33398 33.5977 9.33398C33.5352 9.33398 33.4844 9.32227 33.4453 9.29883C33.4102 9.27539 33.377 9.24023 33.3457 9.19336C33.1113 8.82617 32.8887 8.45703 32.6777 8.08594C32.4707 7.71094 32.2734 7.33984 32.0859 6.97266C31.9141 7.31641 31.7324 7.66406 31.541 8.01562C31.3496 8.36328 31.1426 8.71484 30.9199 9.07031C30.8691 9.14844 30.8125 9.21094 30.75 9.25781C30.6914 9.30859 30.5996 9.33398 30.4746 9.33398C30.3691 9.33398 30.2695 9.31055 30.1758 9.26367C30.082 9.2168 30 9.16016 29.9297 9.09375C29.8633 9.03125 29.8086 8.96875 29.7656 8.90625C29.7266 8.84375 29.707 8.79492 29.707 8.75977C29.707 8.74023 29.7129 8.72656 29.7246 8.71875C29.7402 8.70703 29.7695 8.70117 29.8125 8.70117C29.875 8.70117 29.9648 8.63281 30.082 8.49609C30.2031 8.35938 30.3418 8.16797 30.498 7.92188C30.6582 7.67578 30.8301 7.38086 31.0137 7.03711C31.1973 6.69336 31.3848 6.3125 31.5762 5.89453C31.2949 5.26172 31.0527 4.66211 30.8496 4.0957C30.6465 3.52539 30.4785 3.02344 30.3457 2.58984C30.2129 2.15234 30.1152 1.79883 30.0527 1.5293C29.9902 1.25586 29.959 1.09766 29.959 1.05469C29.959 0.988281 29.9844 0.927734 30.0352 0.873047C30.0898 0.818359 30.1562 0.771484 30.2344 0.732422C30.3125 0.689453 30.3945 0.65625 30.4805 0.632812C30.5664 0.609375 30.6445 0.597656 30.7148 0.597656C30.7695 0.597656 30.8242 0.607422 30.8789 0.626953C30.9375 0.646484 30.9668 0.673828 30.9668 0.708984C30.9668 0.728516 30.9531 0.751953 30.9258 0.779297C30.8984 0.802734 30.8848 0.847656 30.8848 0.914062C30.8848 0.921875 30.9082 1.02539 30.9551 1.22461C31.002 1.42383 31.0742 1.69336 31.1719 2.0332C31.2734 2.36914 31.4004 2.76562 31.5527 3.22266C31.7051 3.67578 31.8867 4.16211 32.0977 4.68164C32.3438 4.07617 32.5723 3.43945 32.7832 2.77148C32.9941 2.09961 33.1719 1.41992 33.3164 0.732422C33.3086 0.724609 33.3047 0.712891 33.3047 0.697266C33.3047 0.673828 33.3164 0.65625 33.3398 0.644531C33.3672 0.628906 33.3965 0.619141 33.4277 0.615234C33.459 0.607422 33.4902 0.603516 33.5215 0.603516C33.5566 0.599609 33.582 0.597656 33.5977 0.597656C33.6641 0.597656 33.7324 0.605469 33.8027 0.621094C33.873 0.636719 33.9375 0.660156 33.9961 0.691406C34.0547 0.71875 34.1016 0.753906 34.1367 0.796875C34.1758 0.835938 34.1953 0.878906 34.1953 0.925781C34.1953 0.949219 34.168 1.08984 34.1133 1.34766C34.0625 1.60547 33.9746 1.95312 33.8496 2.39062C33.7285 2.82812 33.5645 3.3418 33.3574 3.93164C33.1543 4.52148 32.9023 5.1582 32.6016 5.8418C32.8242 6.31836 33.0664 6.79688 33.3281 7.27734C33.5898 7.75781 33.8789 8.22852 34.1953 8.68945Z" fill="black"/>
<path d="M28.6875 3.22852C28.5898 3.22852 28.4961 3.20898 28.4062 3.16992C28.3203 3.13086 28.2441 3.07812 28.1777 3.01172C28.1152 2.94531 28.0645 2.86914 28.0254 2.7832C27.9863 2.69336 27.9668 2.59766 27.9668 2.49609C27.9668 2.39062 27.9863 2.29297 28.0254 2.20312C28.0645 2.11328 28.1152 2.03711 28.1777 1.97461C28.2441 1.9082 28.3203 1.85742 28.4062 1.82227C28.4961 1.7832 28.5898 1.76367 28.6875 1.76367C28.793 1.76367 28.8906 1.7832 28.9805 1.82227C29.0703 1.85742 29.1465 1.9082 29.209 1.97461C29.2754 2.03711 29.3262 2.11328 29.3613 2.20312C29.4004 2.29297 29.4199 2.39062 29.4199 2.49609C29.4199 2.59766 29.4004 2.69336 29.3613 2.7832C29.3262 2.86914 29.2754 2.94531 29.209 3.01172C29.1465 3.07812 29.0703 3.13086 28.9805 3.16992C28.8906 3.20898 28.793 3.22852 28.6875 3.22852ZM28.9629 7.99219C28.9629 8.01953 28.9648 8.06445 28.9688 8.12695C28.9727 8.18555 28.9844 8.24609 29.0039 8.30859C29.0234 8.37109 29.0547 8.42578 29.0977 8.47266C29.1406 8.51953 29.2012 8.54297 29.2793 8.54297C29.3965 8.54297 29.498 8.5 29.584 8.41406C29.6738 8.32812 29.75 8.2207 29.8125 8.0918C29.8789 7.96289 29.9336 7.82422 29.9766 7.67578C30.0195 7.52344 30.0547 7.38086 30.082 7.24805C30.1055 7.12695 30.1406 7.03906 30.1875 6.98438C30.2383 6.92969 30.291 6.90039 30.3457 6.89648C30.4043 6.88867 30.4609 6.90234 30.5156 6.9375C30.5742 6.97266 30.625 7.01953 30.668 7.07812C30.7148 7.13281 30.748 7.19531 30.7676 7.26562C30.791 7.33594 30.7949 7.40234 30.7793 7.46484C30.7246 7.66406 30.6523 7.87305 30.5625 8.0918C30.4766 8.31055 30.3652 8.51172 30.2285 8.69531C30.0918 8.87891 29.9277 9.03125 29.7363 9.15234C29.5449 9.27344 29.3203 9.33398 29.0625 9.33398C28.9023 9.33398 28.7598 9.30273 28.6348 9.24023C28.5098 9.18164 28.4043 9.10156 28.3184 9C28.2324 8.89844 28.166 8.7793 28.1191 8.64258C28.0762 8.50586 28.0547 8.36133 28.0547 8.20898V5.00391C28.0547 4.89062 28.0449 4.80859 28.0254 4.75781C28.0098 4.70703 28.002 4.66016 28.002 4.61719C28.002 4.55859 28.0332 4.51172 28.0957 4.47656C28.1582 4.4375 28.2324 4.41797 28.3184 4.41797C28.5176 4.41797 28.6738 4.4707 28.7871 4.57617C28.9043 4.67773 28.9629 4.80078 28.9629 4.94531V7.99219Z" fill="black"/>
<path d="M27.1934 8.54297C27.3145 8.54297 27.418 8.5 27.5039 8.41406C27.5938 8.32812 27.6699 8.2207 27.7324 8.0918C27.7988 7.96289 27.8516 7.82422 27.8906 7.67578C27.9336 7.52344 27.9688 7.38086 27.9961 7.24805C28.0234 7.12305 28.0625 7.0332 28.1133 6.97852C28.168 6.91992 28.2266 6.89062 28.2891 6.89062C28.3359 6.89062 28.3828 6.90625 28.4297 6.9375C28.4805 6.96484 28.5254 7.00195 28.5645 7.04883C28.6074 7.0957 28.6406 7.14844 28.6641 7.20703C28.6914 7.26562 28.7051 7.32422 28.7051 7.38281C28.7051 7.39062 28.7051 7.40039 28.7051 7.41211C28.7051 7.42383 28.7012 7.44141 28.6934 7.46484C28.6426 7.66406 28.5723 7.87305 28.4824 8.0918C28.3965 8.31055 28.2852 8.51172 28.1484 8.69531C28.0117 8.87891 27.8457 9.03125 27.6504 9.15234C27.459 9.27344 27.2344 9.33398 26.9766 9.33398C26.7656 9.33398 26.582 9.28906 26.4258 9.19922C26.2695 9.10938 26.1465 8.99023 26.0566 8.8418C25.9355 8.97852 25.7891 9.09375 25.6172 9.1875C25.4492 9.28516 25.252 9.33398 25.0254 9.33398C24.791 9.33398 24.584 9.28711 24.4043 9.19336C24.2285 9.09961 24.0801 8.97266 23.959 8.8125C23.8379 8.64844 23.7461 8.45703 23.6836 8.23828C23.625 8.01562 23.5957 7.77734 23.5957 7.52344C23.5957 7.02344 23.6758 6.57422 23.8359 6.17578C23.9961 5.77734 24.209 5.43945 24.4746 5.16211C24.7402 4.88086 25.043 4.66602 25.3828 4.51758C25.7266 4.36914 26.082 4.29492 26.4492 4.29492C26.6133 4.29492 26.7461 4.33984 26.8477 4.42969C26.9492 4.51953 27 4.64258 27 4.79883C27 4.90039 26.9883 4.97266 26.9648 5.01562C26.9453 5.05469 26.9062 5.07422 26.8477 5.07422C26.793 5.07422 26.7363 5.07031 26.6777 5.0625C26.6191 5.05469 26.5586 5.05078 26.4961 5.05078C26.2695 5.05078 26.0391 5.10156 25.8047 5.20312C25.5703 5.30078 25.3574 5.45312 25.166 5.66016C24.9785 5.86328 24.8242 6.12305 24.7031 6.43945C24.582 6.75195 24.5215 7.125 24.5215 7.55859C24.5215 7.875 24.582 8.11914 24.7031 8.29102C24.8242 8.45898 24.9902 8.54297 25.2012 8.54297C25.3652 8.54297 25.502 8.48242 25.6113 8.36133C25.7207 8.23633 25.8086 8.08984 25.875 7.92188V6.07031C25.875 6.01172 25.8711 5.96289 25.8633 5.92383C25.8594 5.88477 25.8535 5.85156 25.8457 5.82422C25.8418 5.79688 25.8379 5.77344 25.834 5.75391C25.8301 5.73047 25.8281 5.70898 25.8281 5.68945C25.8281 5.62695 25.8574 5.57812 25.916 5.54297C25.9785 5.50391 26.0527 5.48438 26.1387 5.48438C26.3379 5.48438 26.4961 5.53711 26.6133 5.64258C26.7305 5.74414 26.7891 5.86719 26.7891 6.01172V7.99219C26.7891 8.05859 26.7969 8.125 26.8125 8.19141C26.8281 8.25391 26.8516 8.3125 26.8828 8.36719C26.9141 8.41797 26.9551 8.46094 27.0059 8.49609C27.0605 8.52734 27.123 8.54297 27.1934 8.54297Z" fill="black"/>
<path d="M20.25 5.32617C20.6367 5.24805 20.9336 5.11133 21.1406 4.91602C21.3477 4.7207 21.5 4.48828 21.5977 4.21875C21.6953 3.94531 21.7578 3.64453 21.7852 3.31641C21.8164 2.98438 21.8477 2.64062 21.8789 2.28516C21.9141 1.92578 21.9707 1.56641 22.0488 1.20703C22.127 0.84375 22.2637 0.494141 22.459 0.158203C22.4707 0.130859 22.498 0.0976562 22.541 0.0585938C22.584 0.0195312 22.6406 0 22.7109 0C22.7852 0 22.8633 0.00976562 22.9453 0.0292969C23.0312 0.0488281 23.1094 0.0761719 23.1797 0.111328C23.25 0.142578 23.3066 0.179688 23.3496 0.222656C23.3965 0.265625 23.4199 0.310547 23.4199 0.357422C23.4199 0.416016 23.3887 0.460938 23.3262 0.492188C23.2012 0.679688 23.1016 0.888672 23.0273 1.11914C22.957 1.3457 22.9004 1.58398 22.8574 1.83398C22.8145 2.08008 22.7773 2.33398 22.7461 2.5957C22.7148 2.85742 22.6777 3.11719 22.6348 3.375C22.5957 3.62891 22.543 3.87891 22.4766 4.125C22.4102 4.36719 22.3203 4.5957 22.207 4.81055C22.0938 5.02148 21.9473 5.21289 21.7676 5.38477C21.5918 5.55664 21.3711 5.70117 21.1055 5.81836C21.3867 5.9707 21.6191 6.1543 21.8027 6.36914C21.9902 6.58398 22.1484 6.81836 22.2773 7.07227C22.4062 7.32227 22.5156 7.58594 22.6055 7.86328C22.6992 8.13672 22.793 8.4082 22.8867 8.67773C22.9844 8.94727 23.0918 9.20703 23.209 9.45703C23.3262 9.71094 23.4766 9.93945 23.6602 10.1426C23.6758 10.1621 23.6953 10.1758 23.7188 10.1836C23.7461 10.1953 23.7715 10.2051 23.7949 10.2129C23.8223 10.2246 23.8438 10.2363 23.8594 10.248C23.8789 10.2637 23.8887 10.2832 23.8887 10.3066C23.8887 10.3652 23.8555 10.4297 23.7891 10.5C23.7227 10.5742 23.6426 10.6426 23.5488 10.7051C23.459 10.7715 23.3691 10.8262 23.2793 10.8691C23.1895 10.9121 23.1211 10.9336 23.0742 10.9336C23.0156 10.9336 22.9629 10.9082 22.916 10.8574C22.748 10.6465 22.6074 10.4277 22.4941 10.2012C22.3809 9.97852 22.2812 9.75195 22.1953 9.52148C22.1133 9.29102 22.041 9.0625 21.9785 8.83594C21.916 8.60547 21.8516 8.38477 21.7852 8.17383C21.7227 7.95898 21.6504 7.75586 21.5684 7.56445C21.4902 7.37305 21.3926 7.19922 21.2754 7.04297C21.1582 6.88281 21.0156 6.74414 20.8477 6.62695C20.6836 6.50586 20.4844 6.41211 20.25 6.3457V9.05859C20.25 9.16016 20.2168 9.23047 20.1504 9.26953C20.084 9.3125 20.0059 9.33398 19.916 9.33398C19.8457 9.33398 19.7754 9.32422 19.7051 9.30469C19.6348 9.28516 19.5703 9.25977 19.5117 9.22852C19.457 9.19727 19.4102 9.16016 19.3711 9.11719C19.3359 9.07812 19.3184 9.03516 19.3184 8.98828V1.53516C19.0488 1.57031 18.793 1.64648 18.5508 1.76367C18.3125 1.88086 18.1035 2.04102 17.9238 2.24414C17.748 2.44727 17.6074 2.69336 17.502 2.98242C17.4004 3.27148 17.3496 3.60547 17.3496 3.98438C17.3496 4.22656 17.375 4.44531 17.4258 4.64062C17.4766 4.83203 17.5371 4.99609 17.6074 5.13281C17.6777 5.26562 17.748 5.36914 17.8184 5.44336C17.8887 5.51758 17.9434 5.55469 17.9824 5.55469C18.0176 5.55469 18.0508 5.54688 18.082 5.53125C18.1133 5.51562 18.1445 5.50781 18.1758 5.50781C18.2383 5.50781 18.2695 5.55664 18.2695 5.6543C18.2695 5.7793 18.2402 5.90039 18.1816 6.01758C18.127 6.13086 18.0566 6.22461 17.9707 6.29883C17.8848 6.36914 17.791 6.41406 17.6895 6.43359C17.5879 6.45312 17.4941 6.43164 17.4082 6.36914C17.3027 6.29883 17.1895 6.19141 17.0684 6.04688C16.9512 5.90234 16.8418 5.72852 16.7402 5.52539C16.6426 5.31836 16.5605 5.08594 16.4941 4.82812C16.4316 4.57031 16.4004 4.28906 16.4004 3.98438C16.4004 3.5625 16.4512 3.18555 16.5527 2.85352C16.6543 2.51758 16.7891 2.22461 16.957 1.97461C17.1289 1.72461 17.3281 1.51172 17.5547 1.33594C17.7812 1.16016 18.0195 1.01758 18.2695 0.908203C18.5195 0.798828 18.7734 0.720703 19.0312 0.673828C19.2891 0.623047 19.5352 0.597656 19.7695 0.597656C19.832 0.597656 19.8926 0.611328 19.9512 0.638672C20.0098 0.662109 20.0605 0.697266 20.1035 0.744141C20.1465 0.787109 20.1816 0.839844 20.209 0.902344C20.2363 0.964844 20.25 1.03125 20.25 1.10156V5.32617Z" fill="black"/>
<path d="M15.8027 5.50781C15.8027 5.73047 15.7637 5.95898 15.6855 6.19336C15.6113 6.42773 15.498 6.65039 15.3457 6.86133C15.1973 7.06836 15.0117 7.25586 14.7891 7.42383C14.5703 7.58789 14.3164 7.71289 14.0273 7.79883C14.0664 7.90039 14.1172 7.99805 14.1797 8.0918C14.2461 8.18164 14.3242 8.25977 14.4141 8.32617C14.5039 8.39258 14.6074 8.44531 14.7246 8.48438C14.8457 8.52344 14.9844 8.54297 15.1406 8.54297C15.375 8.54297 15.5762 8.5 15.7441 8.41406C15.9121 8.32422 16.0527 8.20703 16.166 8.0625C16.2832 7.91797 16.377 7.75586 16.4473 7.57617C16.5176 7.39648 16.5703 7.21484 16.6055 7.03125C16.6328 6.89844 16.6875 6.81055 16.7695 6.76758C16.8555 6.7207 16.9414 6.70898 17.0273 6.73242C17.1172 6.75586 17.1934 6.80664 17.2559 6.88477C17.3223 6.95898 17.3496 7.04883 17.3379 7.1543C17.3223 7.27539 17.2949 7.41406 17.2559 7.57031C17.2207 7.72656 17.166 7.88477 17.0918 8.04492C17.0176 8.20508 16.9219 8.36328 16.8047 8.51953C16.6914 8.67188 16.5508 8.80859 16.3828 8.92969C16.2148 9.05078 16.0176 9.14844 15.791 9.22266C15.5645 9.29688 15.3047 9.33398 15.0117 9.33398C14.7383 9.33398 14.4727 9.2793 14.2148 9.16992C13.9609 9.06445 13.7344 8.91211 13.5352 8.71289C13.3398 8.50977 13.1816 8.26172 13.0605 7.96875C12.9434 7.67188 12.8848 7.33594 12.8848 6.96094C12.8848 6.58203 12.9375 6.23047 13.043 5.90625C13.1484 5.57812 13.2871 5.29492 13.459 5.05664C13.6309 4.81836 13.8262 4.63281 14.0449 4.5C14.2637 4.36328 14.4883 4.29492 14.7188 4.29492C14.8867 4.29492 15.0371 4.32422 15.1699 4.38281C15.3066 4.44141 15.4219 4.52539 15.5156 4.63477C15.6094 4.74023 15.6797 4.86719 15.7266 5.01562C15.7773 5.16406 15.8027 5.32812 15.8027 5.50781ZM13.8691 6.92578C13.8691 6.96094 13.8711 6.99609 13.875 7.03125C13.8789 7.06641 13.8809 7.10352 13.8809 7.14258C14.0293 7.07227 14.1641 6.98242 14.2852 6.87305C14.4062 6.76367 14.5098 6.63867 14.5957 6.49805C14.6816 6.35742 14.748 6.20508 14.7949 6.04102C14.8418 5.87305 14.8652 5.69922 14.8652 5.51953C14.8652 5.38672 14.8418 5.2832 14.7949 5.20898C14.752 5.13477 14.6914 5.09766 14.6133 5.09766C14.5156 5.09766 14.4277 5.13086 14.3496 5.19727C14.2754 5.26367 14.209 5.35156 14.1504 5.46094C14.0957 5.56641 14.0488 5.6875 14.0098 5.82422C13.9746 5.95703 13.9453 6.0918 13.9219 6.22852C13.8984 6.36523 13.8828 6.49609 13.875 6.62109C13.8672 6.74219 13.8652 6.84375 13.8691 6.92578Z" fill="black"/>
<path d="M0.527344 4.96289C0.527344 4.45508 0.599609 3.98828 0.744141 3.5625C0.888672 3.13672 1.08984 2.75391 1.34766 2.41406C1.60547 2.07422 1.91211 1.77734 2.26758 1.52344C2.62695 1.26953 3.01953 1.05664 3.44531 0.884766C3.875 0.712891 4.33008 0.585938 4.81055 0.503906C5.29102 0.417969 5.78516 0.375 6.29297 0.375C6.59766 0.375 6.90234 0.394531 7.20703 0.433594C7.51562 0.472656 7.81445 0.527344 8.10352 0.597656C8.39258 0.667969 8.66797 0.751953 8.92969 0.849609C9.19531 0.947266 9.43945 1.05469 9.66211 1.17188L10.1074 0.597656H11.4199V3.45703H9.93164C9.76758 3.16406 9.56836 2.9043 9.33398 2.67773C9.10352 2.45117 8.84766 2.25977 8.56641 2.10352C8.28906 1.94727 7.99219 1.83008 7.67578 1.75195C7.36328 1.66992 7.04102 1.62891 6.70898 1.62891C6.3457 1.62891 6 1.69141 5.67188 1.81641C5.34375 1.94141 5.05664 2.13281 4.81055 2.39062C4.56445 2.64844 4.36914 2.97656 4.22461 3.375C4.08008 3.76953 4.00781 4.23828 4.00781 4.78125C4.00781 5.30078 4.08594 5.75977 4.24219 6.1582C4.40234 6.55273 4.61523 6.88477 4.88086 7.1543C5.14648 7.41992 5.45508 7.62109 5.80664 7.75781C6.16211 7.89453 6.53516 7.96289 6.92578 7.96289C7.26953 7.96289 7.56641 7.93945 7.81641 7.89258C8.06641 7.8418 8.29297 7.75391 8.49609 7.62891V6.16406L6.79102 4.52344H11.4961V9H10.1074L9.78516 8.41406C9.55469 8.5625 9.30859 8.68945 9.04688 8.79492C8.78516 8.89648 8.51172 8.97852 8.22656 9.04102C7.94141 9.10742 7.64844 9.1543 7.34766 9.18164C7.04688 9.21289 6.74219 9.22852 6.43359 9.22852C5.90625 9.22852 5.39258 9.19727 4.89258 9.13477C4.39648 9.07227 3.92969 8.97266 3.49219 8.83594C3.05469 8.69531 2.6543 8.51562 2.29102 8.29688C1.92773 8.07422 1.61523 7.80664 1.35352 7.49414C1.0918 7.17773 0.888672 6.81055 0.744141 6.39258C0.599609 5.97461 0.527344 5.49805 0.527344 4.96289Z" fill="black"/>
</svg>
